<svg width="45.000000" height="31.000000" viewBox="0 0 45 31" fill="none" xmlns="http://www.w3.org/2000/svg" xmlns:xlink="http://www.w3.org/1999/xlink">
	<desc>
			Created with Pixso.
	</desc>
	<defs/>
	<path id="buffet 1 (Traced)" d="M21.44 0.13C20.09 0.48 18.93 1.71 18.62 3.1C18.5 3.65 18.56 4.55 18.75 5.07C18.83 5.29 18.87 5.47 18.86 5.49C18.84 5.5 18.52 5.59 18.14 5.68C15.58 6.28 12.74 7.69 10.73 9.35C8.65 11.07 7.08 13.05 5.9 15.45C4.97 17.35 4.33 19.51 4.18 21.33L4.12 21.98L0 21.98L0.04 23.25C0.08 24.15 0.15 24.73 0.28 25.22C1.02 27.99 3.23 30.11 6.14 30.84C6.7 30.99 7.76 31 22.5 31L38.25 31L39 30.8C41.35 30.19 43.23 28.64 44.24 26.49C44.72 25.47 44.89 24.69 44.95 23.25L45 21.98L40.87 21.98L40.81 21.33C40.54 18.12 38.91 14.34 36.67 11.73C34.13 8.76 30.83 6.69 27.15 5.76C26.6 5.62 26.14 5.49 26.12 5.48C26.11 5.47 26.16 5.29 26.24 5.07C26.43 4.55 26.49 3.65 26.37 3.1C25.89 0.91 23.64 -0.45 21.44 0.13ZM23.11 2.75C23.5 2.95 23.81 3.44 23.81 3.88C23.81 4.51 23.14 5.16 22.49 5.16C22.09 5.16 21.58 4.85 21.36 4.47C21.13 4.07 21.13 3.7 21.35 3.26C21.68 2.64 22.44 2.42 23.11 2.75ZM24.14 7.84C28.8 8.34 33.01 10.83 35.61 14.63C36.25 15.57 37.15 17.38 37.49 18.4C37.8 19.33 38.09 20.6 38.17 21.4L38.24 21.98C27.74 21.98 17.25 21.98 6.76 21.98L6.82 21.4C6.98 19.86 7.5 18.14 8.3 16.51C9.47 14.14 11.03 12.32 13.28 10.68C14.24 9.99 16.36 8.92 17.53 8.54C19.63 7.86 22 7.61 24.14 7.84ZM42.12 24.76C42.09 24.87 41.92 25.25 41.75 25.6C41.11 26.92 39.66 28.01 38.17 28.32C37.24 28.51 7.75 28.51 6.82 28.32C5.33 28.01 3.88 26.92 3.24 25.6C3.07 25.25 2.9 24.87 2.87 24.76L2.82 24.57L42.17 24.57L42.12 24.76Z" fill="#F4683F" fill-opacity="1.000000" fill-rule="evenodd"/>
</svg>
