<svg width="34.000000" height="42.000000" viewBox="0 0 34 42" fill="none" xmlns="http://www.w3.org/2000/svg" xmlns:xlink="http://www.w3.org/1999/xlink">
	<desc>
			Created with Pixso.
	</desc>
	<defs/>
	<path id="Frame 14 (Traced)" d="M13.15 0C8.54 0.02 4.61 0.07 3.79 0.13C3.55 0.14 3.5 0.15 3.28 0.22C2.99 0.32 2.72 0.43 2.52 0.53C1.64 1.01 0.79 1.94 0.41 2.82C0.25 3.21 0.11 3.68 0.08 4C0.05 4.32 0.03 5.29 0.01 7.18C-0.01 9.67 -0.01 11.92 0.01 22.98L0.03 32.33L0.2 32.7C0.37 33.08 0.47 33.28 0.63 33.52C0.84 33.84 1.15 34.18 1.4 34.37C1.47 34.42 1.67 34.55 1.85 34.65C2.03 34.75 2.19 34.83 2.19 34.84C2.2 34.85 2.22 35.52 2.23 36.32C2.28 39.29 2.28 39.3 2.54 39.87C2.76 40.35 3.02 40.72 3.36 41.05C3.67 41.34 3.86 41.47 4.48 41.79L4.88 42L6.87 42L8.85 42L9.24 41.8C9.46 41.69 9.7 41.56 9.78 41.51C10.41 41.13 10.88 40.59 11.21 39.86C11.46 39.32 11.47 39.17 11.51 36.81C11.52 36.27 11.54 35.66 11.54 35.46L11.55 35.09L17 35.09L22.44 35.09L22.45 35.46C22.46 35.66 22.47 36.43 22.49 37.18C22.53 39.32 22.53 39.31 22.85 39.97C23.16 40.59 23.47 40.99 23.94 41.34C24.21 41.54 24.6 41.75 24.9 41.87C25.19 41.98 25.55 41.99 27.55 41.99L29.11 42L29.5 41.79C30.13 41.47 30.33 41.34 30.64 41.04C31.02 40.67 31.33 40.2 31.54 39.66C31.7 39.25 31.71 39.02 31.76 36.37C31.77 35.54 31.79 34.85 31.79 34.85C31.8 34.84 31.93 34.76 32.09 34.67C32.56 34.42 32.71 34.3 32.98 34.01C33.3 33.66 33.53 33.28 33.79 32.72L33.96 32.33L33.98 21.85C34.01 7.74 33.99 4.34 33.89 3.81C33.74 3.06 33.37 2.29 32.87 1.69C32.56 1.32 32.11 0.92 31.7 0.67C31.5 0.55 31.11 0.35 30.9 0.28C30.57 0.16 30.34 0.11 30.04 0.09C29.63 0.07 28.39 0.04 26.73 0.02C25.38 0 15.37 -0.01 13.15 0ZM24.04 2.65C26.33 2.66 28.44 2.67 28.72 2.68C29.79 2.72 30.06 2.76 30.4 2.94C30.98 3.26 31.3 3.76 31.41 4.53C31.46 4.85 31.47 5.21 31.47 6.09L31.47 6.95L16.99 6.95L2.51 6.95L2.52 5.94C2.53 4.95 2.55 4.72 2.6 4.42C2.66 4.09 2.78 3.76 2.94 3.54C3.03 3.42 3.25 3.2 3.38 3.1C3.44 3.06 3.62 2.95 3.79 2.84L4.1 2.65L6.04 2.64C11.09 2.63 20.27 2.63 24.04 2.65ZM31.47 14.06L31.47 18.53L17 18.53L2.52 18.53L2.52 14.06L2.52 9.59L17 9.59L31.47 9.59L31.47 14.06ZM31.47 25.06C31.47 28.92 31.46 30.72 31.42 31.25C31.39 31.65 31.36 31.81 31.28 31.98C31.15 32.24 30.99 32.31 30.44 32.36C29.59 32.43 26.92 32.45 17 32.45C5.79 32.45 3.78 32.43 3.2 32.32C2.81 32.24 2.66 32.04 2.6 31.54C2.54 31.05 2.53 30.48 2.52 25.83L2.52 21.19L16.99 21.19L31.47 21.19L31.47 25.06ZM7.83 25.52C7.39 25.6 7.07 25.86 6.86 26.31C6.77 26.5 6.74 26.64 6.73 26.82C6.73 27.46 7.36 28.13 7.98 28.14C8.15 28.14 8.27 28.11 8.46 28.02C9 27.76 9.35 27.14 9.25 26.63C9.19 26.35 9.01 26.03 8.8 25.83C8.67 25.72 8.44 25.59 8.27 25.55C8.14 25.52 7.93 25.5 7.83 25.52ZM25.81 25.52C25.58 25.56 25.35 25.68 25.19 25.83C24.91 26.09 24.73 26.49 24.73 26.82C24.73 27.26 25.05 27.79 25.44 27.97C25.78 28.14 26.04 28.17 26.29 28.09C26.78 27.93 27.18 27.45 27.25 26.95C27.31 26.6 27.12 26.15 26.8 25.84C26.54 25.6 26.13 25.47 25.81 25.52ZM8.97 36.72C8.96 37.75 8.95 38.39 8.94 38.46C8.84 39.08 8.61 39.3 7.96 39.37C7.7 39.4 6.04 39.4 5.79 39.37C5.44 39.33 5.25 39.26 5.09 39.11C4.92 38.95 4.84 38.74 4.8 38.34C4.78 38.14 4.76 35.16 4.77 35.11C4.78 35.09 5.02 35.09 6.88 35.09L8.97 35.09L8.97 36.72ZM29.22 36.59C29.21 38.12 29.21 38.38 29.14 38.65C29.06 39.02 28.85 39.24 28.5 39.32C28.24 39.39 28.04 39.4 27.11 39.4C26.16 39.4 25.97 39.39 25.71 39.32C25.36 39.22 25.17 39.01 25.09 38.64C25.03 38.35 25.02 38.03 25.02 36.54L25.02 35.09L27.12 35.09L29.22 35.1L29.22 36.59Z" fill="#F4683F" fill-opacity="1.000000" fill-rule="evenodd"/>
</svg>
