<svg width="39.000000" height="41.000000" viewBox="0 0 39 41" fill="none" xmlns="http://www.w3.org/2000/svg" xmlns:xlink="http://www.w3.org/1999/xlink">
	<desc>
			Created with Pixso.
	</desc>
	<defs/>
	<path id="chef (Traced)" d="M18.38 0.02C16.75 0.27 15.55 0.63 14.38 1.22C12.73 2.05 11.16 3.42 10.06 4.97L9.76 5.4L8.78 5.44C6.4 5.55 4.46 6.41 2.78 8.1C0.25 10.62 -0.65 14.47 0.46 17.93C0.93 19.38 1.59 20.47 2.72 21.64C3.81 22.78 4.79 23.42 6.19 23.91C6.57 24.04 7.02 24.17 7.18 24.2C7.35 24.23 7.55 24.27 7.62 24.3C7.75 24.33 7.75 24.71 7.76 30.84C7.76 34.41 7.79 37.58 7.83 37.88C8 39.31 9.04 40.53 10.37 40.86C11.11 41.04 27.88 41.04 28.62 40.86C29.95 40.53 30.99 39.31 31.16 37.88C31.2 37.58 31.23 34.41 31.23 30.84C31.24 24.71 31.24 24.33 31.37 24.3C31.44 24.27 31.64 24.23 31.81 24.2C32.26 24.12 33.44 23.69 33.96 23.42C35.22 22.76 36.66 21.44 37.43 20.24C39.91 16.37 39.4 11.29 36.21 8.1C34.53 6.41 32.59 5.55 30.21 5.44L29.23 5.4L28.93 4.97C27.19 2.52 24.62 0.82 21.73 0.21C21.02 0.06 18.92 -0.06 18.38 0.02ZM20.77 2.78C23.3 3.15 25.68 4.73 27.12 7C27.88 8.21 27.83 8.18 29.59 8.18C31.29 8.18 31.62 8.25 32.81 8.87C34.8 9.89 36.18 11.99 36.36 14.24C36.63 17.56 34.79 20.42 31.74 21.44C30.66 21.8 28.71 21.74 27.72 21.31L27.47 21.2L28.12 20.43C29.31 19.05 30.05 17.73 30.59 16.04C30.82 15.31 30.85 15.16 30.78 14.86C30.68 14.41 30.49 14.15 30.08 13.93C29.66 13.71 29.38 13.7 28.95 13.92C28.56 14.12 28.38 14.39 28.16 15.11C27.62 16.94 26.33 18.78 24.76 19.95C23.22 21.09 21.45 21.67 19.49 21.67C17.54 21.67 15.77 21.09 14.23 19.95C12.66 18.78 11.37 16.94 10.83 15.11C10.61 14.39 10.43 14.12 10.04 13.92C9.61 13.7 9.33 13.71 8.91 13.93C8.5 14.15 8.31 14.41 8.21 14.86C8.14 15.16 8.17 15.31 8.4 16.04C8.94 17.73 9.68 19.05 10.87 20.43L11.52 21.2L11.27 21.31C10.28 21.74 8.33 21.8 7.25 21.44C4.67 20.58 2.85 18.28 2.63 15.59C2.51 14.15 2.73 12.98 3.35 11.74C3.99 10.48 4.95 9.5 6.18 8.87C7.37 8.25 7.7 8.18 9.4 8.18C11.16 8.18 11.11 8.21 11.87 7C12.48 6.05 13.45 5 14.3 4.39C15.39 3.61 16.92 2.97 18.15 2.79C18.82 2.69 20.08 2.68 20.77 2.78ZM14.35 23.16C17.47 24.81 21.52 24.81 24.64 23.16L25.01 22.96L25.76 23.36C26.54 23.76 27.42 24.08 28.19 24.24L28.63 24.33L28.61 31.06L28.59 37.79L28.34 38.03L28.09 38.26L19.49 38.26L10.9 38.26L10.65 38.03L10.4 37.79L10.38 31.06L10.36 24.33L10.8 24.24C11.59 24.08 12.48 23.75 13.21 23.36C13.61 23.14 13.94 22.97 13.95 22.97C13.96 22.96 14.14 23.05 14.35 23.16Z" fill="#F4683F" fill-opacity="1.000000" fill-rule="evenodd"/>
</svg>
