<svg width="36.000000" height="38.000000" viewBox="0 0 36 38" fill="none" xmlns="http://www.w3.org/2000/svg" xmlns:xlink="http://www.w3.org/1999/xlink">
	<desc>
			Created with Pixso.
	</desc>
	<defs/>
	<path id="cocktail 1 (Traced)" d="M27.29 0.07C26.18 0.22 24.74 0.83 23.77 1.56C22.45 2.55 21.39 4.17 21.02 5.76L20.9 6.3L11.03 6.3L1.16 6.3C1.16 6.3 0.57 6.16 0.15 6.82C-0.27 7.49 0.28 8.09 0.31 8.13C0.33 8.16 3.41 11.98 7.16 16.62L13.96 25.04L13.96 29.63C13.96 32.9 13.94 34.32 13.87 34.56C13.76 35 13.22 35.55 12.77 35.68C12.55 35.74 11.61 35.77 9.5 35.77L6.55 35.77C6.55 35.77 5.5 35.77 5.5 36.88C5.5 38 6.55 38 6.55 38L15.07 38L23.59 38C23.59 38 24.68 38 24.68 36.88C24.68 35.77 23.59 35.77 23.59 35.77L20.67 35.77C18.84 35.77 17.63 35.74 17.45 35.69C17.08 35.59 16.58 35.15 16.4 34.77C16.27 34.49 16.26 34.16 16.26 29.75L16.25 25.03L20.65 19.58C24.21 15.18 25.09 14.13 25.22 14.14C25.31 14.15 25.68 14.26 26.04 14.38C26.94 14.7 27.65 14.79 28.82 14.74C29.59 14.71 29.97 14.66 30.5 14.51C33.14 13.75 34.97 11.96 35.79 9.36C35.98 8.76 35.99 8.61 36 7.41C36 5.9 35.89 5.39 35.32 4.24C34.9 3.38 34.63 3.01 33.99 2.35C32.24 0.55 29.83 -0.27 27.29 0.07ZM30.05 2.47C31.84 3.02 33.23 4.5 33.64 6.29C33.83 7.09 33.76 8.23 33.49 9.01C32.77 11.07 30.92 12.42 28.7 12.52C27.88 12.55 26.79 12.4 26.68 12.23C26.66 12.2 27.38 11.25 28.28 10.13L29.93 8.09C29.93 8.09 30.35 7.31 30.05 6.75C29.74 6.19 29.07 6.3 29.07 6.3L26.17 6.3L23.27 6.3L23.32 6.06C23.48 5.35 24.1 4.33 24.76 3.7C25.21 3.27 26 2.78 26.57 2.56C27.57 2.17 28.96 2.14 30.05 2.47ZM26.4 8.84C26.26 9.02 25.53 9.92 24.78 10.85C24.03 11.78 23.4 12.54 23.37 12.54C23.34 12.54 23.12 12.44 22.9 12.32C21.94 11.82 20.61 11.7 19.54 12.01C18.68 12.26 18.05 12.66 17.24 13.47C16.29 14.4 15.82 14.64 15.02 14.6C14.22 14.56 13.89 14.38 12.91 13.43C12.22 12.77 11.98 12.58 11.44 12.32C10.07 11.66 8.64 11.66 7.3 12.32C7.05 12.44 6.82 12.52 6.79 12.5C6.74 12.47 4.36 9.55 3.63 8.62C3.57 8.55 5.88 8.53 15.11 8.53L26.66 8.53L26.4 8.84ZM10.34 14.29C10.59 14.4 11.01 14.74 11.56 15.27C12.48 16.15 13.07 16.5 14.04 16.74C14.77 16.92 15.97 16.85 16.66 16.59C17.43 16.31 18.15 15.81 18.78 15.13C19.48 14.38 20.05 14.07 20.78 14.08C21.29 14.08 21.87 14.24 21.87 14.37C21.87 14.49 15.16 22.78 15.08 22.76C15.05 22.75 13.5 20.85 11.63 18.55L8.25 14.35L8.44 14.25C8.94 14 9.74 14.01 10.34 14.29Z" fill="#F4683F" fill-opacity="1.000000" fill-rule="evenodd"/>
</svg>
