<svg width="38.000000" height="37.000000" viewBox="0 0 38 37" fill="none" xmlns="http://www.w3.org/2000/svg" xmlns:xlink="http://www.w3.org/1999/xlink">
	<desc>
			Created with Pixso.
	</desc>
	<defs/>
	<path id="confetti (Traced)" d="M34.39 0.14C34 0.39 33.9 0.62 33.74 1.62C33.41 3.61 32.72 5.4 31.9 6.44L31.71 6.67L31.52 6.2C30.77 4.3 29.28 3.24 27.38 3.24C26.15 3.24 25.32 3.59 24.46 4.46C22.77 6.18 22.93 9 24.81 10.25C25.58 10.76 26.23 10.93 27.4 10.92C28.06 10.92 28.6 10.87 29.01 10.78C29.35 10.7 29.65 10.65 29.68 10.68C29.73 10.73 29.53 11.49 29.29 12.14C29.07 12.77 28.41 13.75 27.98 14.11C27.56 14.47 27.4 14.76 27.4 15.16C27.4 15.95 28.14 16.5 28.86 16.26C29.21 16.14 30.12 15.24 30.54 14.59C31.39 13.29 31.9 11.78 32.04 10.11L32.1 9.46L32.84 8.74C34 7.61 34.78 6.31 35.36 4.5C35.72 3.42 35.95 2.32 36 1.45C36.04 0.85 36.02 0.72 35.89 0.51C35.59 0.02 34.87 -0.16 34.39 0.14ZM3.84 0.97C2.52 1.25 1.41 2.33 1.07 3.69C0.74 4.97 1.08 6.24 2.01 7.19C4.07 9.31 7.56 8.17 8.08 5.2C8.51 2.73 6.23 0.47 3.84 0.97ZM5.23 3.42C5.82 3.84 6.03 4.59 5.72 5.25C5.47 5.79 4.72 6.11 4.16 5.92C3.28 5.63 2.93 4.64 3.41 3.83C3.75 3.26 4.69 3.05 5.23 3.42ZM28.42 5.8C29.01 6.14 29.41 6.73 29.64 7.66L29.76 8.12L29.51 8.23C28.65 8.6 27.38 8.76 26.7 8.58C25.85 8.35 25.55 8.01 25.55 7.27C25.55 5.87 27.11 5.07 28.42 5.8ZM14.6 6.98C14.21 7.18 10.89 10.59 10.77 10.92C10.65 11.23 10.67 11.59 10.8 11.85C10.86 11.97 11.75 12.92 12.76 13.96L14.62 15.85L15.08 15.85L15.55 15.85L17.4 13.96C18.42 12.92 19.3 11.97 19.37 11.85C19.5 11.59 19.51 11.23 19.39 10.92C19.27 10.58 15.95 7.18 15.56 6.98C15.15 6.78 15 6.78 14.6 6.98ZM15.97 10.5L16.79 11.33L15.94 12.21L15.09 13.08L14.23 12.21L13.38 11.34L14.19 10.5C14.64 10.04 15.04 9.67 15.08 9.67C15.12 9.67 15.52 10.04 15.97 10.5ZM20.98 17.06C20.43 17.37 20.21 18 20.48 18.53C21.03 19.61 22.58 19.27 22.58 18.07C22.58 17.65 22.42 17.38 22.01 17.09C21.7 16.87 21.35 16.86 20.98 17.06ZM2.53 17.45C1.49 18.01 1.83 19.59 3 19.59C3.87 19.59 4.37 18.76 3.97 17.97C3.69 17.4 3.05 17.17 2.53 17.45ZM9.76 19.14C9.42 19.29 8.58 20.17 8.15 20.81C7.39 21.96 6.89 23.43 6.71 25.04L6.61 25.9L5.81 26.71C5.37 27.16 4.86 27.75 4.69 28.02C3.63 29.65 2.76 32.34 2.73 34.06L2.73 34.74L3.02 35.02C3.18 35.17 3.4 35.32 3.52 35.35C4 35.47 4.63 35.14 4.81 34.67C4.86 34.55 4.95 34.06 5.03 33.59C5.29 31.91 5.77 30.56 6.51 29.41L6.99 28.69L7.34 29.45C7.63 30.07 7.81 30.33 8.3 30.83C9.18 31.73 10.1 32.12 11.3 32.12C12.92 32.12 14.33 31.28 15 29.91C16.05 27.75 15.14 25.37 12.98 24.64C12.06 24.32 10.55 24.34 9.2 24.69C9.02 24.74 9.02 24.73 9.07 24.43C9.17 23.85 9.59 22.78 9.91 22.26C10.09 21.99 10.43 21.56 10.68 21.31C11.24 20.76 11.32 20.61 11.32 20.13C11.32 19.71 11.05 19.31 10.63 19.14C10.31 19 10.08 19 9.76 19.14ZM33.06 19.83C32.93 19.91 32.01 20.82 31.02 21.85L29.22 23.71L29.22 24.1C29.22 24.31 29.27 24.58 29.33 24.7C29.51 25.04 32.95 28.52 33.21 28.62C33.57 28.76 33.84 28.72 34.21 28.47C34.41 28.34 35.3 27.48 36.2 26.54C37.54 25.15 37.85 24.78 37.94 24.5C38.12 23.87 37.98 23.67 36.01 21.65C35.04 20.66 34.15 19.81 34.03 19.76C33.69 19.63 33.33 19.66 33.06 19.83ZM24.02 20.81C23.65 21.04 23.49 21.33 23.5 21.77C23.5 22.19 23.67 22.46 24.07 22.75C24.4 22.98 24.74 22.98 25.13 22.75C25.81 22.35 25.9 21.54 25.34 20.96C25.08 20.69 25 20.65 24.66 20.65C24.41 20.65 24.18 20.71 24.02 20.81ZM18.84 22.02C18.48 22.39 18.4 22.67 18.53 23.12C18.79 24.03 19.81 24.25 20.42 23.53C20.62 23.31 20.67 23.18 20.67 22.88C20.67 22.16 20.23 21.71 19.53 21.71C19.19 21.71 19.11 21.75 18.84 22.02ZM0.52 22.27C0.01 22.62 -0.16 23.29 0.15 23.8C0.59 24.55 1.56 24.56 2.03 23.83C2.13 23.68 2.21 23.43 2.21 23.27C2.21 22.92 1.95 22.43 1.66 22.25C1.36 22.07 0.8 22.08 0.52 22.27ZM34.43 25.02L33.58 25.9L32.75 25.05L31.91 24.19L32.76 23.32L33.61 22.44L34.45 23.3L35.28 24.15L34.43 25.02ZM12.45 26.9C13.54 27.39 13.41 28.99 12.24 29.62C11.79 29.87 10.87 29.87 10.4 29.62C9.75 29.28 9.16 28.34 9.05 27.48L9.01 27.19L9.56 27.01C10.68 26.65 11.8 26.6 12.45 26.9ZM21.78 29.74C20.38 30.13 19.36 31.3 19.14 32.77C18.79 35.08 20.7 37.18 22.96 36.98C24.38 36.86 25.63 35.85 26.1 34.47C26.3 33.89 26.3 32.73 26.1 32.14C25.76 31.13 24.91 30.22 23.94 29.85C23.31 29.61 22.42 29.56 21.78 29.74ZM23.34 32.1C24 32.42 24.23 33.42 23.8 34.1C23.32 34.85 22.06 34.86 21.59 34.13C21.22 33.55 21.29 32.79 21.74 32.33C22.16 31.89 22.73 31.81 23.34 32.1Z" fill="#F4683F" fill-opacity="1.000000" fill-rule="evenodd"/>
</svg>
