<svg width="34.000000" height="38.000000" viewBox="0 0 34 38" fill="none" xmlns="http://www.w3.org/2000/svg" xmlns:xlink="http://www.w3.org/1999/xlink">
	<desc>
			Created with Pixso.
	</desc>
	<defs/>
	<path id="microphone (Traced)" d="M6.74 0.08C4.15 0.52 1.99 2.07 0.85 4.32C-0.9 7.75 0.09 11.69 3.28 14.03C4.37 14.83 6.01 15.42 7.46 15.54L8.13 15.59L16.91 23L25.68 30.41L26.77 29.38L27.85 28.35L29.55 30C30.72 31.14 31.3 31.77 31.42 32C31.91 33 31.72 34.14 30.92 34.96C30.28 35.62 29.34 35.9 28.43 35.72C28.16 35.66 26.95 35.08 24.85 34.01C20.9 31.98 20.41 31.75 19.36 31.36C17.96 30.84 16.89 30.57 15.27 30.31C13.97 30.1 10.7 30.12 9.37 30.34C7.56 30.64 6.02 31.09 4.47 31.76C3.52 32.17 0.66 33.64 0.66 33.72C0.66 33.8 1.66 35.63 1.71 35.63C1.73 35.63 2.19 35.4 2.73 35.12C5.38 33.74 6.51 33.28 8.24 32.85C11.34 32.09 14.75 32.21 17.82 33.19C19.03 33.58 19.82 33.95 23.6 35.89C25.34 36.78 26.9 37.57 27.08 37.64C27.71 37.9 28.55 38.03 29.3 37.98C30.62 37.9 31.6 37.48 32.52 36.6C33.5 35.65 34 34.46 33.99 33.07C33.99 32.16 33.75 31.37 33.27 30.65C33.08 30.36 32.28 29.52 31.21 28.48L29.47 26.79L30.53 25.76L31.6 24.73L23.88 16.24L16.16 7.75L16.16 7.36C16.16 7.15 16.11 6.71 16.04 6.38C15.45 3.36 13.15 0.98 10.08 0.22C9.15 -0.01 7.63 -0.08 6.74 0.08ZM9.57 2.38C10.11 2.53 11.03 2.92 11.16 3.07C11.23 3.16 10.53 3.87 7.29 7C5.1 9.1 3.29 10.82 3.26 10.82C3.16 10.82 2.59 9.59 2.46 9.07C2.27 8.33 2.29 7.09 2.5 6.34C2.99 4.55 4.49 3.05 6.35 2.46C6.57 2.39 6.92 2.31 7.12 2.27C7.64 2.18 9.02 2.24 9.57 2.38ZM13.29 5.38C13.59 6 13.85 6.93 13.85 7.39L13.85 7.73L10.93 10.54C8.65 12.75 7.98 13.34 7.83 13.34C7.33 13.34 6.16 13.04 5.54 12.75L4.88 12.44L8.88 8.59C11.67 5.89 12.9 4.75 12.96 4.8C13.01 4.84 13.16 5.1 13.29 5.38ZM16.5 11.51L18 13.16L15.87 15.22C14.69 16.35 13.71 17.27 13.68 17.26C13.61 17.24 11.97 15.88 10.89 14.95L10.21 14.36L12.55 12.11C13.83 10.87 14.91 9.85 14.94 9.85C14.97 9.85 15.67 10.6 16.5 11.51ZM24.03 19.8L28.45 24.65L27.03 26.01L25.61 27.37L20.53 23.09L15.46 18.81L17.49 16.86C18.6 15.78 19.54 14.91 19.57 14.92C19.59 14.93 21.6 17.13 24.03 19.8Z" fill="#F4683F" fill-opacity="1.000000" fill-rule="evenodd"/>
</svg>
