<svg width="40.000000" height="40.000000" viewBox="0 0 40 40" fill="none" xmlns="http://www.w3.org/2000/svg" xmlns:xlink="http://www.w3.org/1999/xlink">
	<desc>
			Created with Pixso.
	</desc>
	<defs>
		<clipPath id="clip102_1756">
			<rect id="icon_benefits_2" width="40.000000" height="40.000000" fill="white" fill-opacity="0"/>
		</clipPath>
	</defs>
	<rect id="icon_benefits_2" width="40.000000" height="40.000000" fill="#FFFFFF" fill-opacity="0"/>
	<g clip-path="url(#clip102_1756)">
		<path id="Vector" d="M36.66 28.33C36.66 30.61 35.88 32.82 34.45 34.6C33.03 36.37 31.03 37.61 28.81 38.1L27.74 34.91C28.72 34.75 29.64 34.37 30.46 33.81C31.27 33.25 31.94 32.52 32.44 31.66L28.33 31.66C27.45 31.66 26.6 31.31 25.97 30.69C25.35 30.06 25 29.21 25 28.33L25 21.66C25 20.78 25.35 19.93 25.97 19.3C26.6 18.68 27.45 18.33 28.33 18.33L33.23 18.33C32.82 15.11 31.25 12.14 28.81 10C26.38 7.85 23.24 6.66 20 6.66C16.75 6.66 13.61 7.85 11.18 10C8.74 12.14 7.17 15.11 6.77 18.33L11.66 18.33C12.55 18.33 13.39 18.68 14.02 19.3C14.64 19.93 15 20.78 15 21.66L15 28.33C15 29.21 14.64 30.06 14.02 30.69C13.39 31.31 12.55 31.66 11.66 31.66L6.66 31.66C5.78 31.66 4.93 31.31 4.31 30.69C3.68 30.06 3.33 29.21 3.33 28.33L3.33 19.99C3.33 10.79 10.79 3.33 20 3.33C29.2 3.33 36.66 10.79 36.66 19.99L36.66 28.33ZM33.33 28.33L33.33 21.66L28.33 21.66L28.33 28.33L33.33 28.33ZM6.66 21.66L6.66 28.33L11.66 28.33L11.66 21.66L6.66 21.66Z" fill="#F4683F" fill-opacity="1.000000" fill-rule="nonzero"/>
	</g>
</svg>
