<svg width="40.000000" height="40.000000" viewBox="0 0 40 40" fill="none" xmlns="http://www.w3.org/2000/svg" xmlns:xlink="http://www.w3.org/1999/xlink">
	<desc>
			Created with Pixso.
	</desc>
	<defs>
		<clipPath id="clip102_1751">
			<rect id="icon_benefits_3" width="40.000000" height="40.000000" fill="white" fill-opacity="0"/>
		</clipPath>
	</defs>
	<rect id="icon_benefits_3" width="40.000000" height="40.000000" fill="#FFFFFF" fill-opacity="0"/>
	<g clip-path="url(#clip102_1751)">
		<path id="Vector" d="M29.73 26.09L30.02 26.39L30.32 26.09C30.67 25.75 31.08 25.47 31.54 25.28C31.99 25.09 32.48 25 32.97 25C33.46 25 33.95 25.09 34.41 25.28C34.86 25.47 35.27 25.75 35.62 26.09C35.97 26.44 36.25 26.86 36.44 27.31C36.62 27.77 36.72 28.25 36.72 28.75C36.72 29.24 36.62 29.73 36.44 30.18C36.25 30.64 35.97 31.05 35.62 31.4L30.02 37L24.43 31.4C23.72 30.69 23.33 29.74 23.33 28.75C23.33 27.75 23.72 26.8 24.43 26.09C25.13 25.39 26.08 25 27.08 25C28.07 25 29.03 25.39 29.73 26.09ZM19.99 23.33L19.99 26.66C17.34 26.66 14.8 27.72 12.92 29.59C11.05 31.47 9.99 34.01 9.99 36.66L6.66 36.66C6.66 33.2 8.01 29.87 10.42 27.38C12.83 24.89 16.12 23.44 19.58 23.34L19.99 23.33ZM19.99 1.66C25.52 1.66 29.99 6.14 29.99 11.66C30 14.25 28.99 16.74 27.2 18.6C25.4 20.46 22.96 21.56 20.37 21.66L19.99 21.66C14.47 21.66 9.99 17.19 9.99 11.66C9.99 9.07 11 6.59 12.79 4.72C14.59 2.86 17.03 1.76 19.62 1.67L19.99 1.66ZM19.99 5C16.31 5 13.33 7.98 13.33 11.66C13.33 15.35 16.31 18.33 19.99 18.33C23.68 18.33 26.66 15.35 26.66 11.66C26.66 7.98 23.68 5 19.99 5Z" fill="#F4683F" fill-opacity="1.000000" fill-rule="nonzero"/>
	</g>
</svg>
