<svg width="33.653320" height="33.333374" viewBox="0 0 33.6533 33.3334" fill="none" xmlns="http://www.w3.org/2000/svg" xmlns:xlink="http://www.w3.org/1999/xlink">
	<desc>
			Created with Pixso.
	</desc>
	<defs/>
	<path id="Vector" d="M28.33 0C29.25 0 30 0.74 30 1.66L30 7.92L26.66 11.26L26.66 3.33L3.33 3.33L3.33 30L26.66 30L26.66 25.4L30 22.06L30 31.66C30 32.58 29.25 33.33 28.33 33.33L1.66 33.33C0.74 33.33 0 32.58 0 31.66L0 1.66C0 0.74 0.74 0 1.66 0L28.33 0ZM31.29 11.34L33.65 13.7L20.68 26.66L18.33 26.66L18.33 24.31L31.29 11.34ZM16.66 16.66L16.66 20L8.33 20L8.33 16.66L16.66 16.66ZM21.66 10L21.66 13.33L8.33 13.33L8.33 10L21.66 10Z" fill="#F4683F" fill-opacity="1.000000" fill-rule="nonzero"/>
</svg>
